<?xml version="1.0" encoding="UTF-8"?>
<!DOCTYPE svg PUBLIC "-//W3C//DTD SVG 1.1//EN" "http://www.w3.org/Graphics/SVG/1.1/DTD/svg11.dtd">
<!-- Creator: CorelDRAW X7 -->
<svg xmlns="http://www.w3.org/2000/svg" xml:space="preserve" width="1000px" height="1000px" version="1.1" style="shape-rendering:geometricPrecision; text-rendering:geometricPrecision; image-rendering:optimizeQuality; fill-rule:evenodd; clip-rule:evenodd"
viewBox="0 0 1000 1000"
 xmlns:xlink="http://www.w3.org/1999/xlink">
 <defs>
  <style type="text/css">
   <![CDATA[
    .fil2 {fill:#FEFEFE}
    .fil1 {fill:#4B4B4D}
    .fil0 {fill:url(#id0)}
   ]]>
  </style>
  <linearGradient id="id0" gradientUnits="userSpaceOnUse" x1="9.64489" y1="499.999" x2="990.362" y2="499.999">
   <stop offset="0" style="stop-opacity:1; stop-color:#41A971"/>
   <stop offset="1" style="stop-opacity:1; stop-color:#FCA03F"/>
  </linearGradient>
 </defs>
 <g id="Layer_x0020_1">
  <metadata id="CorelCorpID_0Corel-Layer"/>
  <g id="_1458550622240">
   <path class="fil0" d="M468 10c-79,8 -131,21 -193,54 -169,88 -279,271 -264,468 6,73 23,137 53,192 58,108 141,188 257,233 61,25 136,39 212,33 76,-6 134,-24 192,-53 164,-84 277,-263 264,-471 -12,-201 -143,-354 -310,-424 -56,-23 -143,-39 -211,-32z"/>
   <path class="fil1" d="M424 569c-4,-37 -57,-69 -88,-97 -37,-34 -55,-58 -85,-99 -9,-14 -32,-43 -35,-56 -7,-28 20,-57 40,-36l74 86c6,8 4,10 14,10 -1,-12 -65,-83 -78,-98 -10,-12 -22,-23 -9,-43 10,-15 29,-14 40,-3l54 64c5,7 19,30 30,28 1,-7 -18,-26 -23,-32 -11,-13 -18,-22 -28,-33 -10,-11 -16,-20 -28,-33 -10,-11 -22,-23 -15,-42 5,-14 25,-25 39,-10l57 64c5,6 7,10 14,17 6,7 7,13 17,11 0,-8 -67,-81 -77,-93 -34,-39 8,-60 33,-44 10,6 23,20 30,29l40 46c5,6 8,12 17,11 0,-9 -34,-44 -41,-53 11,-1 75,13 84,18 29,16 31,44 35,68l24 157c0,3 1,7 1,10 2,7 2,7 6,10 23,-27 86,-87 116,-118 28,-27 95,-92 118,-117 -5,-10 -45,-41 -57,-49 -71,-48 -155,-76 -247,-75 -104,2 -197,38 -272,101 -139,116 -201,323 -120,504 25,57 50,90 86,128 10,-5 152,-151 175,-173 13,-14 46,-50 59,-58z"/>
   <path class="fil1" d="M598 476l0 9c5,4 20,24 21,32 -10,13 -56,44 -61,55 14,7 23,13 35,22 11,7 26,15 25,30 -2,22 -21,17 -38,14 -12,-3 -35,-9 -45,-9 5,20 15,42 16,66 0,38 -41,47 -23,56 3,-7 26,-22 30,-44 5,-28 -8,-45 -10,-66 12,0 30,3 36,9 4,4 4,7 11,11 5,2 13,3 18,6 -3,35 2,34 24,42 0,19 -3,28 10,40 15,12 26,4 39,-3 12,-8 55,-39 65,-42 11,9 57,85 68,88 104,-112 142,-275 89,-434 -11,-35 -46,-103 -68,-123 -7,4 -162,161 -182,181 -10,10 -18,18 -30,30 -6,5 -10,10 -16,15 -4,4 -9,8 -14,15z"/>
   <path class="fil2" d="M424 569c0,0 1,-2 1,-1l141 -142c-4,-3 -4,-3 -6,-10 0,-3 -1,-7 -1,-10l-24 -157c-4,-24 -6,-52 -35,-68 -9,-5 -73,-19 -84,-18 7,9 41,44 41,53 -9,1 -12,-5 -17,-11l-40 -46c-7,-9 -20,-23 -30,-29 -25,-16 -67,5 -33,44 10,12 77,85 77,93 -10,2 -11,-4 -17,-11 -7,-7 -9,-11 -14,-17l-57 -64c-14,-15 -34,-4 -39,10 -7,19 5,31 15,42 12,13 18,22 28,33 10,11 17,20 28,33 5,6 24,25 23,32 -11,2 -25,-21 -30,-28l-54 -64c-11,-11 -30,-12 -40,3 -13,20 -1,31 9,43 13,15 77,86 78,98 -10,0 -8,-2 -14,-10l-74 -86c-20,-21 -47,8 -40,36 3,13 26,42 35,56 30,41 48,65 85,99 31,28 84,60 88,97z"/>
   <path class="fil2" d="M451 624c7,-3 4,7 4,14 0,7 1,14 1,21 1,12 2,26 2,39 -7,7 -15,15 -21,21 -8,8 -15,14 -23,22 -16,16 -125,127 -135,130 6,7 28,16 37,21 11,5 28,12 41,17 26,8 66,19 94,22 -3,-5 -1,0 -2,-7l70 -95c5,-8 4,-8 15,-10 9,-2 17,-4 26,-3 0,-1 0,-2 -1,-2l-8 -14c-6,-11 -23,-40 -23,-49 -18,-9 23,-18 23,-56 -1,-24 -11,-46 -16,-66 10,0 33,6 45,9 17,3 36,8 38,-14 1,-15 -14,-23 -25,-30 -12,-9 -21,-15 -35,-22 5,-11 51,-42 61,-55 -1,-8 -16,-28 -21,-32l0 -9 -147 148z"/>
   <path class="fil2" d="M528 751c0,9 17,38 23,49l8 14c1,0 1,1 1,2 1,5 23,42 27,50 5,10 25,43 26,52 64,-13 136,-59 184,-104l19 -20c1,0 1,0 1,-1 1,0 1,-1 2,-1 -11,-3 -57,-79 -68,-88 -10,3 -53,34 -65,42 -13,7 -24,15 -39,3 -13,-12 -10,-21 -10,-40 -22,-8 -27,-7 -24,-42 -5,-3 -13,-4 -18,-6 -7,-4 -7,-7 -11,-11 -6,-6 -24,-9 -36,-9 2,21 15,38 10,66 -4,22 -27,37 -30,44z"/>
   <path class="fil1" d="M279 871c10,-3 119,-114 135,-130 8,-8 15,-14 23,-22 6,-6 14,-14 21,-21 0,-13 -1,-27 -2,-39 0,-7 -1,-14 -1,-21 0,-7 3,-17 -4,-14l-53 52c-24,23 -161,159 -163,165 9,8 34,27 44,30z"/>
   <path class="fil1" d="M451 931c28,-1 56,3 86,0 29,-2 50,-7 76,-13 -1,-9 -21,-42 -26,-52 -4,-8 -26,-45 -27,-50 -9,-1 -17,1 -26,3 -11,2 -10,2 -15,10l-70 95c1,7 -1,2 2,7z"/>
   <path class="fil2" d="M744 645l-70 46c-12,8 -28,14 -30,29 -2,17 12,33 30,24l87 -58c7,-4 12,-6 12,-17 1,-17 -14,-28 -23,-26 -10,1 -3,0 -6,2z"/>
   <path class="fil2" d="M717 602c-8,3 -10,5 -17,10l-50 34c-12,8 -28,14 -30,27 -3,21 10,34 29,25l66 -45c8,-5 29,-15 30,-27 1,-14 -13,-29 -28,-24z"/>
   <path class="fil2" d="M573 570c8,7 17,11 28,19 17,11 15,5 29,-5 20,-13 52,-29 53,-45 1,-35 -42,-28 -59,-15 -8,6 -18,15 -26,22 -8,8 -22,13 -25,24z"/>
   <path class="fil2" d="M621 602c5,11 11,19 4,32 -9,17 -13,10 -28,17 11,20 46,-10 59,-19l54 -37c16,-18 -6,-52 -36,-30 -13,10 -46,30 -53,37z"/>
  </g>
 </g>
</svg>
